<mxfile host="app.diagrams.net" agent="Mozilla/5.0 (Macintosh; Intel Mac OS X 10_15_7) AppleWebKit/537.36 (KHTML, like Gecko) Chrome/139.0.0.0 Safari/537.36" version="28.1.1">
  <diagram id="C5RBs43oDa-KdzZeNtuy" name="Page-1">
    <mxGraphModel dx="1426" dy="1080" grid="1" gridSize="10" guides="1" tooltips="1" connect="1" arrows="1" fold="1" page="1" pageScale="1" pageWidth="827" pageHeight="1169" math="0" shadow="0">
      <root>
        <mxCell id="WIyWlLk6GJQsqaUBKTNV-0" />
        <mxCell id="WIyWlLk6GJQsqaUBKTNV-1" parent="WIyWlLk6GJQsqaUBKTNV-0" />
        <mxCell id="ERO_cMUE3S481gdJ_7yT-166" value="dto" style="shape=folder;fontStyle=1;tabWidth=110;tabHeight=30;tabPosition=left;html=1;boundedLbl=1;labelInHeader=1;container=1;collapsible=0;recursiveResize=0;whiteSpace=wrap;" parent="WIyWlLk6GJQsqaUBKTNV-1" vertex="1">
          <mxGeometry x="840" y="40" width="490" height="380" as="geometry" />
        </mxCell>
        <mxCell id="ERO_cMUE3S481gdJ_7yT-167" value="&lt;&lt;record&gt;&gt;&#xa;ApiSpecificationDto" style="swimlane;fontStyle=1;align=center;verticalAlign=top;childLayout=stackLayout;horizontal=1;startSize=48;horizontalStack=0;resizeParent=1;resizeLast=0;collapsible=1;marginBottom=0;rounded=0;shadow=0;strokeWidth=1;" parent="ERO_cMUE3S481gdJ_7yT-166" vertex="1">
          <mxGeometry x="20" y="55" width="145" height="160" as="geometry">
            <mxRectangle x="550" y="140" width="160" height="26" as="alternateBounds" />
          </mxGeometry>
        </mxCell>
        <mxCell id="ERO_cMUE3S481gdJ_7yT-168" value="" style="line;html=1;strokeWidth=1;align=left;verticalAlign=middle;spacingTop=-1;spacingLeft=3;spacingRight=3;rotatable=0;labelPosition=right;points=[];portConstraint=eastwest;" parent="ERO_cMUE3S481gdJ_7yT-167" vertex="1">
          <mxGeometry y="48" width="145" height="8" as="geometry" />
        </mxCell>
        <mxCell id="ERO_cMUE3S481gdJ_7yT-170" value="+ name: String" style="text;align=left;verticalAlign=top;spacingLeft=4;spacingRight=4;overflow=hidden;rotatable=0;points=[[0,0.5],[1,0.5]];portConstraint=eastwest;" parent="ERO_cMUE3S481gdJ_7yT-167" vertex="1">
          <mxGeometry y="56" width="145" height="26" as="geometry" />
        </mxCell>
        <mxCell id="ERO_cMUE3S481gdJ_7yT-169" value="+ minVersion: String" style="text;align=left;verticalAlign=top;spacingLeft=4;spacingRight=4;overflow=hidden;rotatable=0;points=[[0,0.5],[1,0.5]];portConstraint=eastwest;" parent="ERO_cMUE3S481gdJ_7yT-167" vertex="1">
          <mxGeometry y="82" width="145" height="26" as="geometry" />
        </mxCell>
        <mxCell id="qdes_yIqvZQ-Eg8zkmq4-25" value="+ maxVersion: String" style="text;align=left;verticalAlign=top;spacingLeft=4;spacingRight=4;overflow=hidden;rotatable=0;points=[[0,0.5],[1,0.5]];portConstraint=eastwest;" vertex="1" parent="ERO_cMUE3S481gdJ_7yT-167">
          <mxGeometry y="108" width="145" height="26" as="geometry" />
        </mxCell>
        <mxCell id="qdes_yIqvZQ-Eg8zkmq4-26" value="+ fileTypes: List&lt;String&gt;" style="text;align=left;verticalAlign=top;spacingLeft=4;spacingRight=4;overflow=hidden;rotatable=0;points=[[0,0.5],[1,0.5]];portConstraint=eastwest;" vertex="1" parent="ERO_cMUE3S481gdJ_7yT-167">
          <mxGeometry y="134" width="145" height="26" as="geometry" />
        </mxCell>
        <mxCell id="ERO_cMUE3S481gdJ_7yT-177" value="&lt;&lt;record&gt;&gt;&#xa;ToolDto" style="swimlane;fontStyle=1;align=center;verticalAlign=top;childLayout=stackLayout;horizontal=1;startSize=48;horizontalStack=0;resizeParent=1;resizeLast=0;collapsible=1;marginBottom=0;rounded=0;shadow=0;strokeWidth=1;" parent="ERO_cMUE3S481gdJ_7yT-166" vertex="1">
          <mxGeometry x="180" y="55" width="140" height="160" as="geometry">
            <mxRectangle x="550" y="140" width="160" height="26" as="alternateBounds" />
          </mxGeometry>
        </mxCell>
        <mxCell id="ERO_cMUE3S481gdJ_7yT-178" value="" style="line;html=1;strokeWidth=1;align=left;verticalAlign=middle;spacingTop=-1;spacingLeft=3;spacingRight=3;rotatable=0;labelPosition=right;points=[];portConstraint=eastwest;" parent="ERO_cMUE3S481gdJ_7yT-177" vertex="1">
          <mxGeometry y="48" width="140" height="8" as="geometry" />
        </mxCell>
        <mxCell id="ERO_cMUE3S481gdJ_7yT-179" value="+ name: String" style="text;align=left;verticalAlign=top;spacingLeft=4;spacingRight=4;overflow=hidden;rotatable=0;points=[[0,0.5],[1,0.5]];portConstraint=eastwest;" parent="ERO_cMUE3S481gdJ_7yT-177" vertex="1">
          <mxGeometry y="56" width="140" height="26" as="geometry" />
        </mxCell>
        <mxCell id="ERO_cMUE3S481gdJ_7yT-180" value="+ description: String" style="text;align=left;verticalAlign=top;spacingLeft=4;spacingRight=4;overflow=hidden;rotatable=0;points=[[0,0.5],[1,0.5]];portConstraint=eastwest;" parent="ERO_cMUE3S481gdJ_7yT-177" vertex="1">
          <mxGeometry y="82" width="140" height="26" as="geometry" />
        </mxCell>
        <mxCell id="ERO_cMUE3S481gdJ_7yT-182" value="+ requestMethod: String" style="text;align=left;verticalAlign=top;spacingLeft=4;spacingRight=4;overflow=hidden;rotatable=0;points=[[0,0.5],[1,0.5]];portConstraint=eastwest;" parent="ERO_cMUE3S481gdJ_7yT-177" vertex="1">
          <mxGeometry y="108" width="140" height="26" as="geometry" />
        </mxCell>
        <mxCell id="ERO_cMUE3S481gdJ_7yT-181" value="+ inputSchema: String" style="text;align=left;verticalAlign=top;spacingLeft=4;spacingRight=4;overflow=hidden;rotatable=0;points=[[0,0.5],[1,0.5]];portConstraint=eastwest;" parent="ERO_cMUE3S481gdJ_7yT-177" vertex="1">
          <mxGeometry y="134" width="140" height="26" as="geometry" />
        </mxCell>
        <mxCell id="ERO_cMUE3S481gdJ_7yT-171" value="&lt;&lt;record&gt;&gt;&#xa;ToolSpecificationDto" style="swimlane;fontStyle=1;align=center;verticalAlign=top;childLayout=stackLayout;horizontal=1;startSize=48;horizontalStack=0;resizeParent=1;resizeLast=0;collapsible=1;marginBottom=0;rounded=0;shadow=0;strokeWidth=1;" parent="ERO_cMUE3S481gdJ_7yT-166" vertex="1">
          <mxGeometry x="331" y="55" width="140" height="134" as="geometry">
            <mxRectangle x="550" y="140" width="160" height="26" as="alternateBounds" />
          </mxGeometry>
        </mxCell>
        <mxCell id="ERO_cMUE3S481gdJ_7yT-172" value="" style="line;html=1;strokeWidth=1;align=left;verticalAlign=middle;spacingTop=-1;spacingLeft=3;spacingRight=3;rotatable=0;labelPosition=right;points=[];portConstraint=eastwest;" parent="ERO_cMUE3S481gdJ_7yT-171" vertex="1">
          <mxGeometry y="48" width="140" height="8" as="geometry" />
        </mxCell>
        <mxCell id="ERO_cMUE3S481gdJ_7yT-173" value="+ name: String" style="text;align=left;verticalAlign=top;spacingLeft=4;spacingRight=4;overflow=hidden;rotatable=0;points=[[0,0.5],[1,0.5]];portConstraint=eastwest;" parent="ERO_cMUE3S481gdJ_7yT-171" vertex="1">
          <mxGeometry y="56" width="140" height="26" as="geometry" />
        </mxCell>
        <mxCell id="ERO_cMUE3S481gdJ_7yT-174" value="+ description: String" style="text;align=left;verticalAlign=top;spacingLeft=4;spacingRight=4;overflow=hidden;rotatable=0;points=[[0,0.5],[1,0.5]];portConstraint=eastwest;" parent="ERO_cMUE3S481gdJ_7yT-171" vertex="1">
          <mxGeometry y="82" width="140" height="26" as="geometry" />
        </mxCell>
        <mxCell id="ERO_cMUE3S481gdJ_7yT-175" value="+ tools: ToolDto[]" style="text;align=left;verticalAlign=top;spacingLeft=4;spacingRight=4;overflow=hidden;rotatable=0;points=[[0,0.5],[1,0.5]];portConstraint=eastwest;" parent="ERO_cMUE3S481gdJ_7yT-171" vertex="1">
          <mxGeometry y="108" width="140" height="26" as="geometry" />
        </mxCell>
        <mxCell id="qdes_yIqvZQ-Eg8zkmq4-27" value="&lt;&lt;record&gt;&gt;&#xa;ConversionDto" style="swimlane;fontStyle=1;align=center;verticalAlign=top;childLayout=stackLayout;horizontal=1;startSize=48;horizontalStack=0;resizeParent=1;resizeLast=0;collapsible=1;marginBottom=0;rounded=0;shadow=0;strokeWidth=1;" vertex="1" parent="ERO_cMUE3S481gdJ_7yT-166">
          <mxGeometry x="20" y="230" width="145" height="134" as="geometry">
            <mxRectangle x="550" y="140" width="160" height="26" as="alternateBounds" />
          </mxGeometry>
        </mxCell>
        <mxCell id="qdes_yIqvZQ-Eg8zkmq4-28" value="" style="line;html=1;strokeWidth=1;align=left;verticalAlign=middle;spacingTop=-1;spacingLeft=3;spacingRight=3;rotatable=0;labelPosition=right;points=[];portConstraint=eastwest;" vertex="1" parent="qdes_yIqvZQ-Eg8zkmq4-27">
          <mxGeometry y="48" width="145" height="8" as="geometry" />
        </mxCell>
        <mxCell id="qdes_yIqvZQ-Eg8zkmq4-29" value="+ format: String" style="text;align=left;verticalAlign=top;spacingLeft=4;spacingRight=4;overflow=hidden;rotatable=0;points=[[0,0.5],[1,0.5]];portConstraint=eastwest;" vertex="1" parent="qdes_yIqvZQ-Eg8zkmq4-27">
          <mxGeometry y="56" width="145" height="26" as="geometry" />
        </mxCell>
        <mxCell id="qdes_yIqvZQ-Eg8zkmq4-30" value="+ fileType: String" style="text;align=left;verticalAlign=top;spacingLeft=4;spacingRight=4;overflow=hidden;rotatable=0;points=[[0,0.5],[1,0.5]];portConstraint=eastwest;" vertex="1" parent="qdes_yIqvZQ-Eg8zkmq4-27">
          <mxGeometry y="82" width="145" height="26" as="geometry" />
        </mxCell>
        <mxCell id="qdes_yIqvZQ-Eg8zkmq4-31" value="+ data: String" style="text;align=left;verticalAlign=top;spacingLeft=4;spacingRight=4;overflow=hidden;rotatable=0;points=[[0,0.5],[1,0.5]];portConstraint=eastwest;" vertex="1" parent="qdes_yIqvZQ-Eg8zkmq4-27">
          <mxGeometry y="108" width="145" height="26" as="geometry" />
        </mxCell>
        <mxCell id="ERO_cMUE3S481gdJ_7yT-185" value="service" style="shape=folder;fontStyle=1;tabWidth=110;tabHeight=30;tabPosition=left;html=1;boundedLbl=1;labelInHeader=1;container=1;collapsible=0;recursiveResize=0;whiteSpace=wrap;" parent="WIyWlLk6GJQsqaUBKTNV-1" vertex="1">
          <mxGeometry x="40" y="260" width="780" height="340" as="geometry" />
        </mxCell>
        <mxCell id="ERO_cMUE3S481gdJ_7yT-21" value="&lt;&lt;interface&gt;&gt;&#xa;ConversionService" style="swimlane;fontStyle=1;align=center;verticalAlign=top;childLayout=stackLayout;horizontal=1;startSize=48;horizontalStack=0;resizeParent=1;resizeLast=0;collapsible=1;marginBottom=0;rounded=0;shadow=0;strokeWidth=1;fillColor=#f5f5f5;fontColor=#333333;strokeColor=#666666;" parent="ERO_cMUE3S481gdJ_7yT-185" vertex="1">
          <mxGeometry x="17.5" y="60" width="395" height="110" as="geometry">
            <mxRectangle x="550" y="140" width="160" height="26" as="alternateBounds" />
          </mxGeometry>
        </mxCell>
        <mxCell id="ERO_cMUE3S481gdJ_7yT-23" value="" style="line;html=1;strokeWidth=1;align=left;verticalAlign=middle;spacingTop=-1;spacingLeft=3;spacingRight=3;rotatable=0;labelPosition=right;points=[];portConstraint=eastwest;" parent="ERO_cMUE3S481gdJ_7yT-21" vertex="1">
          <mxGeometry y="48" width="395" height="8" as="geometry" />
        </mxCell>
        <mxCell id="ERO_cMUE3S481gdJ_7yT-24" value="+ convert(spec: String, fileType: String, format: String): ToolSpecification" style="text;align=left;verticalAlign=top;spacingLeft=4;spacingRight=4;overflow=hidden;rotatable=0;points=[[0,0.5],[1,0.5]];portConstraint=eastwest;" parent="ERO_cMUE3S481gdJ_7yT-21" vertex="1">
          <mxGeometry y="56" width="395" height="26" as="geometry" />
        </mxCell>
        <mxCell id="ERO_cMUE3S481gdJ_7yT-25" value="+ getSupportedApiSpec(): List&amp;lt;ApiSpecification&amp;gt;" style="text;strokeColor=none;fillColor=none;align=left;verticalAlign=top;spacingLeft=4;spacingRight=4;overflow=hidden;rotatable=0;points=[[0,0.5],[1,0.5]];portConstraint=eastwest;whiteSpace=wrap;html=1;" parent="ERO_cMUE3S481gdJ_7yT-21" vertex="1">
          <mxGeometry y="82" width="395" height="26" as="geometry" />
        </mxCell>
        <mxCell id="ERO_cMUE3S481gdJ_7yT-47" value="&lt;b&gt;ConversionServiceImpl&lt;/b&gt;" style="swimlane;fontStyle=0;childLayout=stackLayout;horizontal=1;startSize=26;fillColor=#f8cecc;horizontalStack=0;resizeParent=1;resizeParentMax=0;resizeLast=0;collapsible=1;marginBottom=0;whiteSpace=wrap;html=1;strokeColor=#b85450;" parent="ERO_cMUE3S481gdJ_7yT-185" vertex="1">
          <mxGeometry x="50" y="270" width="330" height="52" as="geometry" />
        </mxCell>
        <mxCell id="ERO_cMUE3S481gdJ_7yT-48" value="- mapperMap: Map&amp;lt;String, Mapper&amp;gt;" style="text;strokeColor=none;fillColor=none;align=left;verticalAlign=top;spacingLeft=4;spacingRight=4;overflow=hidden;rotatable=0;points=[[0,0.5],[1,0.5]];portConstraint=eastwest;whiteSpace=wrap;html=1;" parent="ERO_cMUE3S481gdJ_7yT-47" vertex="1">
          <mxGeometry y="26" width="330" height="26" as="geometry" />
        </mxCell>
        <mxCell id="ERO_cMUE3S481gdJ_7yT-53" value="" style="endArrow=block;dashed=1;endFill=0;endSize=12;html=1;rounded=0;exitX=0.5;exitY=0;exitDx=0;exitDy=0;entryX=0.5;entryY=1;entryDx=0;entryDy=0;" parent="ERO_cMUE3S481gdJ_7yT-185" source="ERO_cMUE3S481gdJ_7yT-47" target="ERO_cMUE3S481gdJ_7yT-21" edge="1">
          <mxGeometry width="160" relative="1" as="geometry">
            <mxPoint x="245" y="68" as="sourcePoint" />
            <mxPoint x="405" y="68" as="targetPoint" />
          </mxGeometry>
        </mxCell>
        <mxCell id="qdes_yIqvZQ-Eg8zkmq4-10" value="&lt;b&gt;&amp;lt;&amp;lt;abstract&amp;gt;&amp;gt;&lt;br&gt;Mapper&lt;/b&gt;" style="swimlane;fontStyle=0;childLayout=stackLayout;horizontal=1;startSize=40;horizontalStack=0;resizeParent=1;resizeParentMax=0;resizeLast=0;collapsible=1;marginBottom=0;whiteSpace=wrap;html=1;fillColor=#f5f5f5;fontColor=#333333;strokeColor=#666666;" vertex="1" parent="ERO_cMUE3S481gdJ_7yT-185">
          <mxGeometry x="440" y="60" width="320" height="100" as="geometry" />
        </mxCell>
        <mxCell id="qdes_yIqvZQ-Eg8zkmq4-12" value="+ SPEC: ApiSpecification" style="text;strokeColor=none;fillColor=none;align=left;verticalAlign=top;spacingLeft=4;spacingRight=4;overflow=hidden;rotatable=0;points=[[0,0.5],[1,0.5]];portConstraint=eastwest;whiteSpace=wrap;html=1;" vertex="1" parent="qdes_yIqvZQ-Eg8zkmq4-10">
          <mxGeometry y="40" width="320" height="26" as="geometry" />
        </mxCell>
        <mxCell id="qdes_yIqvZQ-Eg8zkmq4-11" value="" style="line;strokeWidth=1;fillColor=none;align=left;verticalAlign=middle;spacingTop=-1;spacingLeft=3;spacingRight=3;rotatable=0;labelPosition=right;points=[];portConstraint=eastwest;strokeColor=inherit;" vertex="1" parent="qdes_yIqvZQ-Eg8zkmq4-10">
          <mxGeometry y="66" width="320" height="8" as="geometry" />
        </mxCell>
        <mxCell id="qdes_yIqvZQ-Eg8zkmq4-14" value="+ convert(spec: String, fileType: String): ToolSpecification" style="text;strokeColor=none;fillColor=none;align=left;verticalAlign=top;spacingLeft=4;spacingRight=4;overflow=hidden;rotatable=0;points=[[0,0.5],[1,0.5]];portConstraint=eastwest;whiteSpace=wrap;html=1;" vertex="1" parent="qdes_yIqvZQ-Eg8zkmq4-10">
          <mxGeometry y="74" width="320" height="26" as="geometry" />
        </mxCell>
        <mxCell id="qdes_yIqvZQ-Eg8zkmq4-20" value="&lt;b&gt;OpenApiMapper&lt;/b&gt;" style="swimlane;fontStyle=0;childLayout=stackLayout;horizontal=1;startSize=26;fillColor=#ffe6cc;horizontalStack=0;resizeParent=1;resizeParentMax=0;resizeLast=0;collapsible=1;marginBottom=0;whiteSpace=wrap;html=1;strokeColor=#d79b00;" vertex="1" parent="ERO_cMUE3S481gdJ_7yT-185">
          <mxGeometry x="420" y="260" width="160" height="30" as="geometry" />
        </mxCell>
        <mxCell id="qdes_yIqvZQ-Eg8zkmq4-22" value="&lt;b&gt;RamlMapper&lt;/b&gt;" style="swimlane;fontStyle=0;childLayout=stackLayout;horizontal=1;startSize=26;fillColor=#ffe6cc;horizontalStack=0;resizeParent=1;resizeParentMax=0;resizeLast=0;collapsible=1;marginBottom=0;whiteSpace=wrap;html=1;strokeColor=#d79b00;" vertex="1" parent="ERO_cMUE3S481gdJ_7yT-185">
          <mxGeometry x="600" y="260" width="160" height="30" as="geometry" />
        </mxCell>
        <mxCell id="qdes_yIqvZQ-Eg8zkmq4-23" value="Extends" style="endArrow=block;endSize=16;endFill=0;html=1;rounded=0;exitX=0.5;exitY=0;exitDx=0;exitDy=0;entryX=0.455;entryY=0.974;entryDx=0;entryDy=0;entryPerimeter=0;" edge="1" parent="ERO_cMUE3S481gdJ_7yT-185" source="qdes_yIqvZQ-Eg8zkmq4-20" target="qdes_yIqvZQ-Eg8zkmq4-14">
          <mxGeometry width="160" relative="1" as="geometry">
            <mxPoint x="580" y="190" as="sourcePoint" />
            <mxPoint x="740" y="190" as="targetPoint" />
          </mxGeometry>
        </mxCell>
        <mxCell id="qdes_yIqvZQ-Eg8zkmq4-24" value="Extends" style="endArrow=block;endSize=16;endFill=0;html=1;rounded=0;exitX=0.5;exitY=0;exitDx=0;exitDy=0;entryX=0.5;entryY=1;entryDx=0;entryDy=0;" edge="1" parent="ERO_cMUE3S481gdJ_7yT-185" source="qdes_yIqvZQ-Eg8zkmq4-22" target="qdes_yIqvZQ-Eg8zkmq4-10">
          <mxGeometry width="160" relative="1" as="geometry">
            <mxPoint x="580" y="190" as="sourcePoint" />
            <mxPoint x="740" y="190" as="targetPoint" />
          </mxGeometry>
        </mxCell>
        <mxCell id="ERO_cMUE3S481gdJ_7yT-187" value="controller" style="shape=folder;fontStyle=1;tabWidth=110;tabHeight=30;tabPosition=left;html=1;boundedLbl=1;labelInHeader=1;container=1;collapsible=0;recursiveResize=0;whiteSpace=wrap;" parent="WIyWlLk6GJQsqaUBKTNV-1" vertex="1">
          <mxGeometry x="40" y="40" width="400" height="190" as="geometry" />
        </mxCell>
        <mxCell id="ERO_cMUE3S481gdJ_7yT-0" value="ConversionController" style="swimlane;fontStyle=1;align=center;verticalAlign=top;childLayout=stackLayout;horizontal=1;startSize=26;horizontalStack=0;resizeParent=1;resizeLast=0;collapsible=1;marginBottom=0;rounded=0;shadow=0;strokeWidth=1;fillColor=#dae8fc;strokeColor=#6c8ebf;" parent="ERO_cMUE3S481gdJ_7yT-187" vertex="1">
          <mxGeometry x="16" y="56" width="370" height="114" as="geometry">
            <mxRectangle x="550" y="140" width="160" height="26" as="alternateBounds" />
          </mxGeometry>
        </mxCell>
        <mxCell id="ERO_cMUE3S481gdJ_7yT-3" value="- conversionService: ConversionService" style="text;strokeColor=none;fillColor=none;align=left;verticalAlign=top;spacingLeft=4;spacingRight=4;overflow=hidden;rotatable=0;points=[[0,0.5],[1,0.5]];portConstraint=eastwest;whiteSpace=wrap;html=1;" parent="ERO_cMUE3S481gdJ_7yT-0" vertex="1">
          <mxGeometry y="26" width="370" height="26" as="geometry" />
        </mxCell>
        <mxCell id="ERO_cMUE3S481gdJ_7yT-1" value="" style="line;html=1;strokeWidth=1;align=left;verticalAlign=middle;spacingTop=-1;spacingLeft=3;spacingRight=3;rotatable=0;labelPosition=right;points=[];portConstraint=eastwest;" parent="ERO_cMUE3S481gdJ_7yT-0" vertex="1">
          <mxGeometry y="52" width="370" height="8" as="geometry" />
        </mxCell>
        <mxCell id="ERO_cMUE3S481gdJ_7yT-2" value="+ convertSpec2Tool(specification: Specification): ToolSpecification" style="text;align=left;verticalAlign=top;spacingLeft=4;spacingRight=4;overflow=hidden;rotatable=0;points=[[0,0.5],[1,0.5]];portConstraint=eastwest;" parent="ERO_cMUE3S481gdJ_7yT-0" vertex="1">
          <mxGeometry y="60" width="370" height="26" as="geometry" />
        </mxCell>
        <mxCell id="ERO_cMUE3S481gdJ_7yT-4" value="+ getSupportedApiSpecs(): List&amp;lt;ApiSpecification&amp;gt;" style="text;strokeColor=none;fillColor=none;align=left;verticalAlign=top;spacingLeft=4;spacingRight=4;overflow=hidden;rotatable=0;points=[[0,0.5],[1,0.5]];portConstraint=eastwest;whiteSpace=wrap;html=1;" parent="ERO_cMUE3S481gdJ_7yT-0" vertex="1">
          <mxGeometry y="86" width="370" height="26" as="geometry" />
        </mxCell>
        <mxCell id="ERO_cMUE3S481gdJ_7yT-192" value="Spec2Tool - Class Diagram&lt;br&gt;Version 1.2 02.09.2025" style="text;align=left;fontStyle=1;verticalAlign=middle;spacingLeft=3;spacingRight=3;strokeColor=none;rotatable=0;points=[[0,0.5],[1,0.5]];portConstraint=eastwest;html=1;" parent="WIyWlLk6GJQsqaUBKTNV-1" vertex="1">
          <mxGeometry x="890" y="440" width="440" height="26" as="geometry" />
        </mxCell>
        <mxCell id="10" value="" style="group" parent="WIyWlLk6GJQsqaUBKTNV-1" vertex="1" connectable="0">
          <mxGeometry x="890" y="475" width="440" height="235" as="geometry" />
        </mxCell>
        <mxCell id="0" value="RestController" style="rounded=0;whiteSpace=wrap;html=1;fillColor=#dae8fc;strokeColor=#6c8ebf;" parent="10" vertex="1">
          <mxGeometry x="20" y="74" width="120" height="60" as="geometry" />
        </mxCell>
        <mxCell id="1" value="Service" style="rounded=0;whiteSpace=wrap;html=1;fillColor=#f8cecc;strokeColor=#b85450;" parent="10" vertex="1">
          <mxGeometry x="160" y="74" width="120" height="60" as="geometry" />
        </mxCell>
        <mxCell id="2" value="Component" style="rounded=0;whiteSpace=wrap;html=1;fillColor=#ffe6cc;strokeColor=#d79b00;" parent="10" vertex="1">
          <mxGeometry x="20" y="154" width="120" height="60" as="geometry" />
        </mxCell>
        <mxCell id="3" value="Repository" style="rounded=0;whiteSpace=wrap;html=1;fillColor=#b1ddf0;strokeColor=#10739e;" parent="10" vertex="1">
          <mxGeometry x="160" y="154" width="120" height="60" as="geometry" />
        </mxCell>
        <mxCell id="4" value="Configuration" style="rounded=0;whiteSpace=wrap;html=1;fillColor=#d5e8d4;strokeColor=#82b366;" parent="10" vertex="1">
          <mxGeometry x="300" y="74" width="120" height="60" as="geometry" />
        </mxCell>
        <mxCell id="5" value="Entity" style="rounded=0;whiteSpace=wrap;html=1;fillColor=#e1d5e7;strokeColor=#9673a6;" parent="10" vertex="1">
          <mxGeometry x="300" y="154" width="120" height="60" as="geometry" />
        </mxCell>
        <mxCell id="7" value="Legend" style="text;html=1;strokeColor=none;fillColor=none;align=center;verticalAlign=middle;whiteSpace=wrap;rounded=0;fontStyle=1;fontSize=20;" parent="10" vertex="1">
          <mxGeometry x="20" y="14" width="60" height="30" as="geometry" />
        </mxCell>
        <mxCell id="9" value="" style="rounded=0;whiteSpace=wrap;html=1;fillColor=none;dashed=1;" parent="10" vertex="1">
          <mxGeometry width="440" height="235" as="geometry" />
        </mxCell>
      </root>
    </mxGraphModel>
  </diagram>
</mxfile>
